<!--?xml version="1.0" standalone="no"?-->
              <svg id="sw-js-blob-svg" viewBox="5 19.5 100 100" width="30rem" height="auto" xmlns="http://www.w3.org/2000/svg" version="1.1">
                    <defs> 
                        <linearGradient id="sw-gradient" x1="0" x2="1" y1="1" y2="0">
                            <stop id="stop1" stop-color="rgba(248, 117, 55, 1)" offset="0%"></stop>
                            <stop id="stop2" stop-color="rgba(251, 168, 31, 1)" offset="100%"></stop>
                        </linearGradient>
                    </defs>
                <path fill="url(#sw-gradient)" d="M11.6,-16C17.7,-16.6,27.1,-18.9,33.1,-16.5C39.1,-14,41.8,-7,41.7,0C41.6,6.9,38.8,13.9,34.3,18.8C29.7,23.8,23.4,26.7,17.4,29.1C11.4,31.5,5.7,33.4,1.6,30.6C-2.5,27.9,-5.1,20.5,-11.3,18.3C-17.6,16,-27.6,18.9,-33.6,16.7C-39.7,14.5,-41.8,7.2,-40.5,0.7C-39.3,-5.8,-34.7,-11.6,-30,-16C-25.2,-20.5,-20.3,-23.5,-15.3,-23.5C-10.2,-23.5,-5.1,-20.5,-1.2,-18.4C2.8,-16.4,5.6,-15.4,11.6,-16Z" width="100%" height="100%" transform="translate(50 50)" stroke-width="0" style="transition: all 0.3s ease 0s;"></path>
              </svg>